# xmcd
#
# Track frame offsets:
#	150
#	22277
#	38416
#	56647
#	74267
#	93155
#	108003
#	124636
#	138627
#	158425
#	175758
#	192968
#	207653
#	224746
#	238598
#	259470
#	273448
#	290221
#	309281
#
# Disc length: 4329 seconds
#
# Revision: 0
# Processed by: cddbd v1.5.2PL0 Copyright (c) Steve Scherf et al.
# Submitted via: EasyCDDAExtractor 12.1.0.1
#
DISCID=2010e713
DTITLE=Various Artist - 2009 Sony Music Winter Sampler Cd1
DYEAR=1900
DGENRE=
TTITLE0=Susan Boyle - Wild Horse
TTITLE1=Britney Spears - 3
TTITLE2=Leona Lewis - Happy
TTITLE3=Alicia Keys - Deosn't Mean Anything
TTITLE4=Westlife - What About Now
TTITLE5=Backstreet Boys - Bigger
TTITLE6=Whitney Houston - I Don't Know My Own Strengh
TTITLE7=R.Kelly - Religious
TTITLE8=Usher - Papers
TTITLE9=Chris Brown - I Can Transform Ya
TTITLE10=Pitbull - Hotel Room Service Remix
TTITLE11=Shakira - Did It Again
TTITLE12=Sweetbox - We Can Work It Out
TTITLE13=Eternity - I Will
TTITLE14=Pink - I Don't Believe You
TTITLE15=Paloma Faith - Romance Is Dead
TTITLE16=Sean Kingston - Why U Wanna Go
TTITLE17=Mario - Thinkin' About You
TTITLE18=Alexandra Burke - Bad Boys
EXTD=
EXTT0=
EXTT1=
EXTT2=
EXTT3=
EXTT4=
EXTT5=
EXTT6=
EXTT7=
EXTT8=
EXTT9=
EXTT10=
EXTT11=
EXTT12=
EXTT13=
EXTT14=
EXTT15=
EXTT16=
EXTT17=
EXTT18=
PLAYORDER=
